<svg xmlns="http://www.w3.org/2000/svg" viewBox="0 0 64 64">
  <!-- Antena -->
  <rect x="30" y="4" width="4" height="6" fill="#fff" rx="1"/>
  <circle cx="32" cy="4" r="3" fill="#fff"/>
  <!-- Corpo arredondado com babado embaixo (formato fantasma) -->
  <path fill="#fff" d="M32 10
    C18 10 12 20 12 30
    L12 52
    C12 55 14 56 16 54
    C18 52 20 52 22 54
    C24 56 26 56 28 54
    C30 52 32 52 34 54
    C36 56 38 56 40 54
    C42 52 44 52 46 54
    C48 56 50 55 50 52
    L50 30
    C50 20 46 10 32 10 Z"/>
  <!-- Olhos -->
  <ellipse cx="24" cy="28" rx="3.5" ry="4.5" fill="#1a1a1a"/>
  <ellipse cx="40" cy="28" rx="3.5" ry="4.5" fill="#1a1a1a"/>
  <!-- Brilho dos olhos -->
  <circle cx="25.5" cy="26.5" r="1" fill="#fff"/>
  <circle cx="41.5" cy="26.5" r="1" fill="#fff"/>
  <!-- Sorriso -->
  <path d="M25 38 Q32 44 39 38" stroke="#1a1a1a" stroke-width="2.5" fill="none" stroke-linecap="round"/>
</svg>
